<svg xmlns="http://www.w3.org/2000/svg" viewBox="973.119 2923 72 60">
  <defs>
    <style>
      .cls-1 {
        fill: #fff;
      }
    </style>
  </defs>
  <path id="briefcase-5_1_" class="cls-1" d="M36.6,40.5C16.2,40.5,5.4,36.9,0,32.7V60H72V33.3C62.4,39.9,43.8,40.5,36.6,40.5ZM42,48a6,6,0,1,1-12,0V45H42ZM0,22.5V15H72v7.8C72,38.7,0,38.1,0,22.5ZM27,0a6.018,6.018,0,0,0-6,6v6h6V7.5A1.417,1.417,0,0,1,28.5,6h15A1.417,1.417,0,0,1,45,7.5V12h6V6a6.018,6.018,0,0,0-6-6Z" transform="translate(973.119 2923)"/>
</svg>
