<svg xmlns="http://www.w3.org/2000/svg" viewBox="-45 2923 119.959 60">
  <defs>
    <style>
      .cls-1 {
        fill: #fff;
      }
    </style>
  </defs>
  <path id="handshake-3_1_" class="cls-1" d="M60.979,47.984a3.876,3.876,0,0,1,1,5l-4,5.5a3.6,3.6,0,1,1-6-4l4-5.5A3.756,3.756,0,0,1,60.979,47.984Zm-24.992-5,4-5.5c1-1.5,1-4-1-5-1.5-1-4-1-5,1l-3.5,5c-1,1.5-1,4,.5,5S34.988,44.485,35.988,42.985Zm12.5.5-4,5.5c-1,1.5-1,4,1,5a3.876,3.876,0,0,0,5-1l4-5.5c1-1.5,1-4-1-5C51.982,41.486,49.983,41.986,48.484,43.485Zm17.994,10.5c-.5,1.5-2.5,3.5-3.5,5,1,1,1.5,1,2,1,2.5,0,4.5-2.5,2-5ZM41.486,38.487l-4,5.5a3.481,3.481,0,0,0,1,5,3.256,3.256,0,0,0,4.5-1l4-5.5c1-1.5,1-4-1-5C44.985,36.488,42.486,36.988,41.486,38.487Zm63.978-4,14.5-4-8-30.49L96.967,4.5ZM92.969,8c-7.5.5-14-2-21.993-6a10.481,10.481,0,0,0-5.5-2,7.161,7.161,0,0,0-5,2c-5,6-8,11-14,14.5-3,2,.5,7.5,7,5,3.5-1,8-4,11.5-6.5,3-2.5,4.5-2,7,.5,4.5,4.5,20.493,19.993,20.493,19.993,2.5-1.5,5-2.5,7-3.5ZM22.992,4.5,8,0,0,30.49l14.5,4ZM89.97,39.986,68.477,18.494c-5,3.5-11.5,9-17.494,9-4.5,0-9-3-10-7a7.107,7.107,0,0,1,3-8c3.5-2,6-5,9-8.5-9-5.5-16.494,3.5-25.991,3.5l-6,23.492c3,.5,5,1.5,7.5,2l2-3a8.512,8.512,0,0,1,14.5,2c3,.5,6,2.5,7,5,3,.5,6,2,7,5a8.415,8.415,0,0,1,7.5,10l3.5,3.5a3.534,3.534,0,0,0,5-5l-6.5-6.5a.937.937,0,0,1,0-1.5c.5-.5,1-.5,1,0l7.5,7.5a3.534,3.534,0,0,0,5-5l-9.5-9.5a.937.937,0,0,1,0-1.5c.5-.5,1-.5,1,0l10,10a3.339,3.339,0,0,0,5,0C90.969,43.485,90.969,41.486,89.97,39.986Z" transform="translate(-45 2923)"/>
</svg>
