<svg xmlns="http://www.w3.org/2000/svg" viewBox="309 2923 77.007 60">
  <defs>
    <style>
      .cls-1 {
        fill: #fff;
      }
    </style>
  </defs>
  <path id="Path_78" data-name="Path 78" class="cls-1" d="M0,0H34.678c5.569,0,9.876,1.634,13,4.975s4.678,8.391,4.678,15.3V35.5H41.064V19.53c0-2.748-.52-4.752-1.559-6.163a6.07,6.07,0,0,0-5.05-2.079H15.223V59.926H0ZM22.351,21.757H33.564V47.525c8.02.074,14.035-1.114,18.119-3.49a17.291,17.291,0,0,0,8.168-9.8,50.921,50.921,0,0,0,1.931-15.965L61.708,0H76.931L77,18.267c.074,10.025-1.559,18.045-4.975,24.134-3.342,6.089-8.688,10.545-16.114,13.366S38.762,60,26.584,60H22.277V21.757Z" transform="translate(309 2923)"/>
</svg>
