<svg id="Group_8" data-name="Group 8" xmlns="http://www.w3.org/2000/svg" viewBox="0 0 246 105.3">
  <defs>
    <style>
      .cls-1 {
        fill: #0d213f;
      }

      .cls-2 {
        fill: #fff;
      }
    </style>
  </defs>
  <path id="Path_40" data-name="Path 40" class="cls-1" d="M245.9,105.3H12.2A11.353,11.353,0,0,1,.9,94V74.6h245Z"/>
  <g id="Group_5" data-name="Group 5">
    <path id="Path_41" data-name="Path 41" class="cls-1" d="M.7,30.9l-.7-7H8.6l.7,7V44L.7,45.5V30.9Z"/>
    <path id="Path_42" data-name="Path 42" class="cls-1" d="M15.2,41.4l1.2-4.1h7.5V70.2H15.2ZM27.3,51.7a8.581,8.581,0,0,0,6.1-2.8c1.3-1.6,2.1-4.3,2.4-8.2l.8-10.4H15.7V23.8H45.9l-.3,5.6-.7,9.1C44.2,51.5,38.6,58,28,58.2Z"/>
    <path id="Path_43" data-name="Path 43" class="cls-1" d="M74.8,53.6c-4.6,3.1-11.4,4.8-20.3,5.1L51.2,30.3l-.8-6.5H68.8c3.9,0,7,1.1,9.1,3.3,2.2,2.2,3.3,5.3,3.4,9.2l.1,2Q81.85,48.8,74.8,53.6Zm-6.1-4.4A7.809,7.809,0,0,0,72,45.1a20.092,20.092,0,0,0,.8-7V36.3a6.781,6.781,0,0,0-1.3-4.4,4.122,4.122,0,0,0-3.4-1.6H59.8L62.1,51A14.4,14.4,0,0,0,68.7,49.2Z"/>
    <path id="Path_44" data-name="Path 44" class="cls-1" d="M101.7,34.7c0-2.9-1.3-4.4-4-4.4H86V23.8h14a10.542,10.542,0,0,1,7.6,2.7c1.9,1.8,2.8,4.7,2.8,8.5V58h-8.7V34.7Z"/>
    <path id="Path_45" data-name="Path 45" class="cls-1" d="M117.2,30.9l-.7-7h8.6l.7,7v9.4l-.1,3.8-8.6,1.5V30.9Z"/>
    <path id="Path_46" data-name="Path 46" class="cls-1" d="M143.9,58.1l-1.1-6.4a19.4,19.4,0,0,1-3.9,4.6,20.579,20.579,0,0,1-5.5,3l-3.2-6.8q8.4-2.7,11.4-8.4V34.3a5.075,5.075,0,0,0-.7-3.1,3.119,3.119,0,0,0-2.2-1.1l-3.8-.5,1.1-6.4,7.1,1a7.818,7.818,0,0,1,5.4,2.7c1.2,1.5,1.7,3.7,1.7,6.5V44.8l1.9,13.4h-8.2Z"/>
    <path id="Path_47" data-name="Path 47" class="cls-1" d="M157.7,51.6h12.1a7.069,7.069,0,0,0,5.4-2.2,9.052,9.052,0,0,0,2-6.2V38.8a10.471,10.471,0,0,0-1.7-6.1,5.869,5.869,0,0,0-5-2.3h-4.3l-1.1,5.1a7.719,7.719,0,0,0-.2,1.5,2.869,2.869,0,0,0,.9,2.3,6.034,6.034,0,0,0,2.9,1.2l-1.4,5.4c-3.6-.1-6.1-.9-7.7-2.4a8.135,8.135,0,0,1-2.4-6.2,19.666,19.666,0,0,1,.2-2.6l2.4-10.8h12.7a12.386,12.386,0,0,1,9.8,4.1c2.4,2.8,3.5,6.5,3.5,11.2v3.6c0,4.8-1.3,8.6-3.8,11.3a13.254,13.254,0,0,1-10.2,4.1H157.6V51.6Z"/>
    <path id="Path_48" data-name="Path 48" class="cls-1" d="M203.6,30.9l-.7-7h8.6l.7,7V70.1h-8.6Z"/>
    <path id="Path_49" data-name="Path 49" class="cls-1" d="M231.3,37.3a13.177,13.177,0,0,1,.5-4.1,8.73,8.73,0,0,1,1.2-2.9H217.6V23.8h28.1v6.5H241a17.109,17.109,0,0,0-1.1,7V58.1h-8.6Z"/>
  </g>
  <g id="Group_6" data-name="Group 6">
    <path id="Path_50" data-name="Path 50" class="cls-1" d="M214,7.2a4.763,4.763,0,0,1,.6-2.6h-5.9V2.9h9.8V4.7h-1.6a5.991,5.991,0,0,0-.5,2.6v8H214Z"/>
    <path id="Path_51" data-name="Path 51" class="cls-1" d="M223.3,4.1a.975.975,0,0,1,.4.9,1.16,1.16,0,0,1-.4,1,1.528,1.528,0,0,1-1,.4,1.425,1.425,0,0,1-1.2-.6,2.674,2.674,0,0,1-.4-1.7A4.455,4.455,0,0,1,223.3,0l.6,1a5.121,5.121,0,0,0-1.3,1.2,2.537,2.537,0,0,0-.4,1.6h.2A1.008,1.008,0,0,1,223.3,4.1Zm4.3,0a.975.975,0,0,1,.4.9,1.16,1.16,0,0,1-.4,1,1.777,1.777,0,0,1-1,.4,1.425,1.425,0,0,1-1.2-.6,2.674,2.674,0,0,1-.4-1.7A4.455,4.455,0,0,1,227.6,0l.6,1a5.121,5.121,0,0,0-1.3,1.2,2.537,2.537,0,0,0-.4,1.6h.2C227,3.7,227.3,3.9,227.6,4.1Z"/>
    <path id="Path_52" data-name="Path 52" class="cls-1" d="M231.2,5.4l-.3-2.6h2.3l.3,2.6v9.8h-2.4V5.4Z"/>
    <path id="Path_53" data-name="Path 53" class="cls-1" d="M246,2.9a54.671,54.671,0,0,1-.3,6.7,6.66,6.66,0,0,1-1.6,3.6,8.253,8.253,0,0,1-4.2,2l-4.1.8-.3-1.8,3.7-.7L236.5,3h2.4l2.5,10a3.335,3.335,0,0,0,1.7-1.6,6.664,6.664,0,0,0,.7-2.7c.1-1.1.1-2.7.1-4.9V2.9Z"/>
  </g>
  <g id="Group_7" data-name="Group 7">
    <path id="Path_54" data-name="Path 54" class="cls-2" d="M24.7,84.6v2L20.6,97H18.2l4.1-10.6H15.7V81.2h2.1v3.4h6.9Z"/>
    <path id="Path_55" data-name="Path 55" class="cls-2" d="M36.7,84.6a54.671,54.671,0,0,1-.3,6.7,6.66,6.66,0,0,1-1.6,3.6,8.253,8.253,0,0,1-4.2,2l-4.1.8L26,95.8l3.7-.7L27,84.6h2.4l2.5,10A3.335,3.335,0,0,0,33.6,93a6.664,6.664,0,0,0,.7-2.7c.1-1.1.1-2.7.1-4.9v-.9h2.3Z"/>
    <path id="Path_56" data-name="Path 56" class="cls-2" d="M39.3,87.2,39,84.6h2.3l.3,2.6V97H39.2V87.2Z"/>
    <path id="Path_57" data-name="Path 57" class="cls-2" d="M44.5,95.1h4a3.244,3.244,0,0,0,2.4-.9,3.767,3.767,0,0,0,.9-2.8V90a4.148,4.148,0,0,0-.7-2.7,2.583,2.583,0,0,0-2.1-.9H47l-.5,2.2a2.769,2.769,0,0,0-.1.9,1.159,1.159,0,0,0,.4,1A3.337,3.337,0,0,0,48,91l-.4,1.5a4.113,4.113,0,0,1-2.5-.9,2.865,2.865,0,0,1-.8-2.1,4.869,4.869,0,0,1,.1-1.2l.9-3.8h4.2A4.061,4.061,0,0,1,52.9,86a6.263,6.263,0,0,1,1.2,4.1v1.3a6.075,6.075,0,0,1-1.4,4.2A5.137,5.137,0,0,1,49,97H44.5V95.1Z"/>
    <path id="Path_58" data-name="Path 58" class="cls-2" d="M64.9,84.6v2L60.8,97H58.4l4.1-10.6H55.9V81.2H58v3.4h6.9Z"/>
    <path id="Path_59" data-name="Path 59" class="cls-2" d="M71.4,91l.3-1.5h2V97H71.3V91Zm7.4-2.4a2.648,2.648,0,0,0-.5-1.7,2.07,2.07,0,0,0-1.5-.5H71.4V84.6h6a3.705,3.705,0,0,1,2.8,1,4.139,4.139,0,0,1,1,3.1V97H78.8Z"/>
    <path id="Path_60" data-name="Path 60" class="cls-2" d="M92.1,97l-4.6-7-2.2,7H83.1l2.4-7.6.6-1.6-2-3.2h2.4l1.8,3,1.8,2.8.5-1.9,1.1-3.8H94l-2.6,7.8,3.1,4.6H92.1Z"/>
    <path id="Path_61" data-name="Path 61" class="cls-2" d="M103,91.6l3,5.4H96.1V95.2h6.5L96.5,84.6h2.4l2.8,4.9,2-4.9h2.4Z"/>
    <path id="Path_62" data-name="Path 62" class="cls-2" d="M108.7,87.2l-.3-2.6h2.3l.3,2.6V97h-2.4V87.2Z"/>
    <path id="Path_63" data-name="Path 63" class="cls-2" d="M113.6,91l.3-1.5h2V97h-2.4V91Zm7.5-2.4a2.648,2.648,0,0,0-.5-1.7,2.07,2.07,0,0,0-1.5-.5h-5.4V84.6h6a3.705,3.705,0,0,1,2.8,1,4.139,4.139,0,0,1,1,3.1V97h-2.4Z"/>
    <path id="Path_64" data-name="Path 64" class="cls-2" d="M126.2,87.2l-.3-2.6h2.3l.3,2.6V97h-2.4V87.2Z"/>
    <path id="Path_65" data-name="Path 65" class="cls-2" d="M134.8,95.7a2.451,2.451,0,0,0,1.7-.7,3.007,3.007,0,0,0,.4-1.8V84.6h5.9a3.705,3.705,0,0,1,2.8,1,4.139,4.139,0,0,1,1,3.1V97h-2.4V88.6a2.648,2.648,0,0,0-.5-1.7,2.07,2.07,0,0,0-1.5-.5h-3v6.5a4.243,4.243,0,0,1-1,3.2,5,5,0,0,1-3.3,1.2Z"/>
    <path id="Path_66" data-name="Path 66" class="cls-2" d="M149.5,87.2l-.3-2.6h2.3l.3,2.6V97h-2.4V87.2Z"/>
    <path id="Path_67" data-name="Path 67" class="cls-2" d="M164.2,95.1V97h-10V95.2h6.1V88.6a2.648,2.648,0,0,0-.5-1.7,2.07,2.07,0,0,0-1.5-.5h-4.1V84.6h4.7a3.705,3.705,0,0,1,2.8,1,4.139,4.139,0,0,1,1,3.1v6.4Z"/>
    <path id="Path_68" data-name="Path 68" class="cls-2" d="M166.5,87.2l-.3-2.6h2.3l.3,2.6V97h-2.4V87.2Z"/>
    <path id="Path_69" data-name="Path 69" class="cls-2" d="M180.7,85.7a4.5,4.5,0,0,1,1,3.3v8h-2.4V88.9c0-1.6-.7-2.4-2-2.4h-3.4V97h-2.4V84.6h6.3A3.5,3.5,0,0,1,180.7,85.7Z"/>
    <path id="Path_70" data-name="Path 70" class="cls-2" d="M187.8,95.7a2.451,2.451,0,0,0,1.7-.7,3.007,3.007,0,0,0,.4-1.8V84.6h5.9a3.705,3.705,0,0,1,2.8,1,4.139,4.139,0,0,1,1,3.1V97h-2.4V88.6a2.648,2.648,0,0,0-.5-1.7,2.07,2.07,0,0,0-1.5-.5h-3v6.5a4.243,4.243,0,0,1-1,3.2,5,5,0,0,1-3.3,1.2Z"/>
    <path id="Path_71" data-name="Path 71" class="cls-2" d="M202.5,87.2l-.3-2.6h2.3l.3,2.6v4.7l-2.3.4Z"/>
    <path id="Path_72" data-name="Path 72" class="cls-2" d="M207.8,87.2l-.3-2.6h2.3l.3,2.6v4.7l-2.3.4Z"/>
    <path id="Path_73" data-name="Path 73" class="cls-2" d="M222.5,95.1V97h-10V95.2h6.1V88.6a2.648,2.648,0,0,0-.5-1.7,2.07,2.07,0,0,0-1.5-.5h-4.1V84.6h4.7a3.705,3.705,0,0,1,2.8,1,4.139,4.139,0,0,1,1,3.1v6.4Z"/>
    <path id="Path_74" data-name="Path 74" class="cls-2" d="M228.8,97l-.5-2.7a7.005,7.005,0,0,1-1.5,1.9,6.6,6.6,0,0,1-2.2,1.2l-.9-1.9a9.672,9.672,0,0,0,2.5-1.3,5.264,5.264,0,0,0,1.6-2V88.4a2.649,2.649,0,0,0-.3-1.4,1.1,1.1,0,0,0-1-.5l-1.4-.2.3-1.8,2.2.3a2.709,2.709,0,0,1,1.9,1,3.845,3.845,0,0,1,.6,2.4v4.2L231,97Z"/>
  </g>
</svg>
